# xmcd
#
# Track frame offsets:
#	150
#	21292
#	40959
#	60024
#	82050
#	103969
#	130050
#	151958
#	178640
#	202213
#	223795
#	241489
#	270911
#
# Disc length: 3884 seconds
# Revision: 2
# Processed by: cddbd v1.5.2PL0 Copyright (c) Steve Scherf et al.
# Submitted via: dBpowerAMP V12.0
#
DISCID=b50f2a0d
DTITLE=Bernie Marsden - Stacks
DYEAR=2004
DGENRE=Pop/Rock
TTITLE0=Palace Of The King
TTITLE1=Queen Of The Dancefloor
TTITLE2=Send Me Someone To Love
TTITLE3=Black Pit
TTITLE4=Boss Of The Blues （Thanks Mr. King）
TTITLE5=Place In My Heart
TTITLE6=Gone, Gone, Gone
TTITLE7=Funny People
TTITLE8=Day And Night People
TTITLE9=Pebble Mill （Au Revoir）
TTITLE10=Purple Haze
TTITLE11=Pick It Up
TTITLE12=Same Old Blues
EXTD=
EXTT0=
EXTT1=
EXTT2=
EXTT3=
EXTT4=
EXTT5=
EXTT6=
EXTT7=
EXTT8=
EXTT9=
EXTT10=
EXTT11=
EXTT12=
PLAYORDER=
